<svg xmlns="http://www.w3.org/2000/svg" viewBox="0 0 20 20">
  <defs>
    <style>
      .a {
        fill: #fff;
      }
    </style>
  </defs>
  <g>
    <path d="M1.15,19.5a.65.65,0,0,1-.65-.65A18.37,18.37,0,0,1,18.85.5a.65.65,0,0,1,.65.65v17.7a.65.65,0,0,1-.65.65Z"/>
    <path class="a" d="M18.85,1a.15.15,0,0,1,.15.15v17.7a.15.15,0,0,1-.15.15H1.15A.15.15,0,0,1,1,18.85,17.87,17.87,0,0,1,18.85,1m0-1A18.85,18.85,0,0,0,0,18.85,1.16,1.16,0,0,0,1.15,20h17.7A1.16,1.16,0,0,0,20,18.85V1.15A1.16,1.16,0,0,0,18.85,0Z"/>
  </g>
</svg>
